<?xml version="1.0" encoding="UTF-8" standalone="no"?>
<!DOCTYPE svg PUBLIC "-//W3C//DTD SVG 1.1//EN"
 "http://www.w3.org/Graphics/SVG/1.1/DTD/svg11.dtd">
<!-- Generated by graphviz version 2.49.1 (0)
 -->
<!-- Pages: 1 -->
<svg width="745pt" height="99pt"
 viewBox="0.00 0.00 745.00 99.00" xmlns="http://www.w3.org/2000/svg" xmlns:xlink="http://www.w3.org/1999/xlink">
<g id="graph0" class="graph" transform="scale(1 1) rotate(0) translate(4 95)">
<polygon fill="white" stroke="transparent" points="-4,4 -4,-95 741,-95 741,4 -4,4"/>
<g id="clust1" class="cluster">
<title>cluster_stages</title>
<polygon fill="none" stroke="black" stroke-dasharray="5,2" points="120,-8 120,-83 609,-83 609,-8 120,-8"/>
<text text-anchor="middle" x="364.5" y="-67.8" font-family="monospace" font-size="14.00">proc&#45;macro</text>
</g>
<!-- parse -->
<g id="node1" class="node">
<title>parse</title>
<polygon fill="none" stroke="black" points="194,-52 128,-52 128,-16 194,-16 194,-52"/>
<text text-anchor="middle" x="161" y="-30.3" font-family="monospace" font-size="14.00">parse?</text>
</g>
<!-- analyze -->
<g id="node2" class="node">
<title>analyze</title>
<polygon fill="none" stroke="black" points="338,-52 255,-52 255,-16 338,-16 338,-52"/>
<text text-anchor="middle" x="296.5" y="-30.3" font-family="monospace" font-size="14.00">analyze?</text>
</g>
<!-- parse&#45;&gt;analyze -->
<g id="edge2" class="edge">
<title>parse&#45;&gt;analyze</title>
<path fill="none" stroke="black" d="M194.32,-34C209.4,-34 227.71,-34 244.59,-34"/>
<polygon fill="black" stroke="black" points="244.87,-37.5 254.87,-34 244.87,-30.5 244.87,-37.5"/>
<text text-anchor="middle" x="224.5" y="-37.8" font-family="monospace" font-size="14.00">AST</text>
</g>
<!-- lower -->
<g id="node3" class="node">
<title>lower</title>
<polygon fill="none" stroke="black" points="474,-52 416,-52 416,-16 474,-16 474,-52"/>
<text text-anchor="middle" x="445" y="-30.3" font-family="monospace" font-size="14.00">lower</text>
</g>
<!-- analyze&#45;&gt;lower -->
<g id="edge3" class="edge">
<title>analyze&#45;&gt;lower</title>
<path fill="none" stroke="black" d="M338.31,-34C359.46,-34 385.13,-34 405.87,-34"/>
<polygon fill="black" stroke="black" points="405.92,-37.5 415.92,-34 405.92,-30.5 405.92,-37.5"/>
<text text-anchor="middle" x="377" y="-37.8" font-family="monospace" font-size="14.00">model</text>
</g>
<!-- codegen -->
<g id="node4" class="node">
<title>codegen</title>
<polygon fill="none" stroke="black" points="601,-52 527,-52 527,-16 601,-16 601,-52"/>
<text text-anchor="middle" x="564" y="-30.3" font-family="monospace" font-size="14.00">codegen</text>
</g>
<!-- lower&#45;&gt;codegen -->
<g id="edge4" class="edge">
<title>lower&#45;&gt;codegen</title>
<path fill="none" stroke="black" d="M474.02,-34C486.75,-34 502.15,-34 516.54,-34"/>
<polygon fill="black" stroke="black" points="516.78,-37.5 526.78,-34 516.78,-30.5 516.78,-37.5"/>
<text text-anchor="middle" x="500.5" y="-37.8" font-family="monospace" font-size="14.00">IR</text>
</g>
<!-- output -->
<g id="node6" class="node">
<title>output</title>
<text text-anchor="middle" x="704" y="-30.3" font-family="monospace" font-size="14.00">output</text>
</g>
<!-- codegen&#45;&gt;output -->
<g id="edge5" class="edge">
<title>codegen&#45;&gt;output</title>
<path fill="none" stroke="black" d="M601.26,-34C619.45,-34 641.6,-34 660.58,-34"/>
<polygon fill="black" stroke="black" points="660.75,-37.5 670.75,-34 660.75,-30.5 660.75,-37.5"/>
<text text-anchor="middle" x="636" y="-37.8" font-family="monospace" font-size="14.00">Rust</text>
</g>
<!-- input -->
<g id="node5" class="node">
<title>input</title>
<text text-anchor="middle" x="29" y="-30.3" font-family="monospace" font-size="14.00">input</text>
</g>
<!-- input&#45;&gt;parse -->
<g id="edge1" class="edge">
<title>input&#45;&gt;parse</title>
<path fill="none" stroke="black" d="M58.21,-34C75.55,-34 98.11,-34 117.58,-34"/>
<polygon fill="black" stroke="black" points="117.73,-37.5 127.73,-34 117.73,-30.5 117.73,-37.5"/>
<text text-anchor="middle" x="93" y="-37.8" font-family="monospace" font-size="14.00">Rust</text>
</g>
</g>
</svg>
